<svg width="18" height="17" viewBox="0 0 18 17" fill="none" xmlns="http://www.w3.org/2000/svg">
<path d="M17.5645 3.48381C17.2852 2.80207 16.8825 2.18428 16.379 1.66503C15.875 1.14423 15.2808 0.730362 14.6288 0.445924C13.9526 0.149808 13.2274 -0.0017612 12.4952 1.54396e-05C11.468 1.54396e-05 10.4658 0.296555 9.59485 0.856687C9.38649 0.990679 9.18855 1.13785 9.00103 1.2982C8.81351 1.13785 8.61557 0.990679 8.40721 0.856687C7.53628 0.296555 6.53408 1.54396e-05 5.50688 1.54396e-05C4.76721 1.54396e-05 4.05046 0.149384 3.3733 0.445924C2.71906 0.731481 2.12941 1.14224 1.6231 1.66503C1.11887 2.1837 0.716078 2.80163 0.43755 3.48381C0.147934 4.19331 0 4.94674 0 5.72214C0 6.45361 0.141683 7.21582 0.422965 7.99122C0.658409 8.63922 0.995947 9.31137 1.42725 9.99012C2.11066 11.0643 3.05035 12.1845 4.21715 13.3202C6.1507 15.2026 8.06551 16.503 8.14677 16.5557L8.64057 16.8896C8.85935 17.0368 9.14063 17.0368 9.35941 16.8896L9.85321 16.5557C9.93447 16.5008 11.8472 15.2026 13.7828 13.3202C14.9496 12.1845 15.8893 11.0643 16.5727 9.99012C17.004 9.31137 17.3437 8.63922 17.577 7.99122C17.8583 7.21582 18 6.45361 18 5.72214C18.0021 4.94674 17.8541 4.19331 17.5645 3.48381Z" fill="url(#paint0_linear_2_105)"/>
<defs>
<linearGradient id="paint0_linear_2_105" x1="9" y1="0" x2="9" y2="17" gradientUnits="userSpaceOnUse">
<stop stop-color="#EF2203"/>
<stop offset="1" stop-color="#FF2600"/>
</linearGradient>
</defs>
</svg>
