<svg width="29" height="27" viewBox="0 0 29 27" fill="none" xmlns="http://www.w3.org/2000/svg">
<path d="M27.3599 9.50747L18.884 8.27564L15.095 0.594228C14.9916 0.383916 14.8213 0.213663 14.611 0.110176C14.0835 -0.150211 13.4426 0.0667782 13.1789 0.594228L9.3899 8.27564L0.913972 9.50747C0.680292 9.54085 0.466641 9.65102 0.303065 9.81793C0.10531 10.0212 -0.0036618 10.2946 9.39593e-05 10.5782C0.00384972 10.8618 0.120026 11.1322 0.323094 11.3302L6.45554 17.3091L5.00672 25.7516C4.97274 25.948 4.99448 26.15 5.06945 26.3346C5.14443 26.5193 5.26965 26.6793 5.43091 26.7964C5.59217 26.9135 5.78303 26.9831 5.98183 26.9973C6.18064 27.0115 6.37944 26.9697 6.55569 26.8766L14.1369 22.8907L21.7182 26.8766C21.9252 26.9868 22.1655 27.0235 22.3959 26.9834C22.9767 26.8833 23.3673 26.3325 23.2672 25.7516L21.8184 17.3091L27.9508 11.3302C28.1177 11.1666 28.2279 10.9529 28.2613 10.7193C28.3514 10.1351 27.9441 9.59426 27.3599 9.50747Z" fill="url(#paint0_linear_3_119)"/>
<defs>
<linearGradient id="paint0_linear_3_119" x1="14.1369" y1="0" x2="14.1369" y2="27" gradientUnits="userSpaceOnUse">
<stop stop-color="#EF2203"/>
<stop offset="1" stop-color="#FF2600"/>
</linearGradient>
</defs>
</svg>
